#Comment line ignore any data following # character 
#Hierarchical Translation and Rotation (.htr) file 
[Header]	
#Header keywords are followed by a single value 
FileType HTR		#Single word string
DataType HTRS		#Translation followed by rotation and scale data
FileVersion 1		#integer
NumSegments 23		#integer
NumFrames 5		#integer
DataFrameRate 30		#integer, data frame rate in this file
EulerRotationOrder ZYX
CalibrationUnits mm
RotationUnits Degrees
GlobalAxisofGravity Y
BoneLengthAxis Y
ScaleFactor 1.00
[SegmentNames&Hierarchy]
#CHILD	PARENT
MASTER GLOBAL
weapon MASTER
arm_lock_bottom_part1 weapon
arm_lock_bottom_part2 weapon
arm_lock_bottom_part3 weapon
arm_lock_bottom_part4 weapon
arm_lock_top_part1 weapon
arm_lock_top_part2 weapon
arm_lock_top_part3 weapon
front_lower_left_part1 weapon
front_lower_right_part1 weapon
front_top_left_part weapon
front_top_right_part1 weapon
scope_part1 weapon
scope_part2 weapon
front_lower_left_part2 front_lower_left_part1
front_lower_left_part3 front_lower_left_part2
front_lower_right_part2 front_lower_right_part1
front_lower_right_part3 front_lower_right_part2
front_top_left_part2 front_top_left_part
front_top_left_part3 front_top_left_part2
front_top_right_part2 front_top_right_part1
front_top_right_part3 front_top_right_part2
[BasePosition]
#SegmentName Tx, Ty, Tz, Rx, Ry, Rz, BoneLength
MASTER 0.000000 0.000000 0.000000 -90.000000 0.000000 0.000000 10.000000 
weapon 0.000000 0.000000 0.000000 0.000000 0.000000 0.000000 10.000000 
arm_lock_bottom_part1 0.000000 0.000000 0.000000 0.000000 0.000000 0.000000 10.000000 
arm_lock_bottom_part2 0.000000 0.000000 0.000000 0.000000 0.000000 0.000000 10.000000 
arm_lock_bottom_part3 0.000000 0.000000 0.000000 0.000000 0.000000 0.000000 10.000000 
arm_lock_bottom_part4 0.000000 0.000000 0.000000 0.000000 0.000000 0.000000 10.000000 
arm_lock_top_part1 0.000000 0.000000 0.000000 0.000000 0.000000 0.000000 10.000000 
arm_lock_top_part2 0.000000 0.000000 0.000000 0.000000 0.000000 0.000000 10.000000 
arm_lock_top_part3 0.000000 0.000000 0.000000 0.000000 0.000000 0.000000 10.000000 
front_lower_left_part1 0.000000 0.000000 0.000000 0.000000 0.000000 0.000000 10.000000 
front_lower_right_part1 0.000000 0.000000 0.000000 0.000000 0.000000 0.000000 10.000000 
front_top_left_part 0.000000 0.000000 0.000000 0.000000 0.000000 0.000000 10.000000 
front_top_right_part1 0.000000 0.000000 0.000000 0.000000 0.000000 0.000000 10.000000 
scope_part1 0.000000 0.000000 0.000000 0.000000 0.000000 0.000000 10.000000 
scope_part2 0.000000 0.000000 0.000000 0.000000 0.000000 0.000000 10.000000 
front_lower_left_part2 0.000000 0.000000 0.000000 0.000000 0.000000 0.000000 10.000000 
front_lower_left_part3 0.000000 0.000000 0.000000 0.000000 0.000000 0.000000 10.000000 
front_lower_right_part2 0.000000 0.000000 0.000000 0.000000 0.000000 0.000000 10.000000 
front_lower_right_part3 0.000000 0.000000 0.000000 0.000000 0.000000 0.000000 10.000000 
front_top_left_part2 0.000000 0.000000 0.000000 0.000000 0.000000 0.000000 10.000000 
front_top_left_part3 0.000000 0.000000 0.000000 0.000000 0.000000 0.000000 10.000000 
front_top_right_part2 0.000000 0.000000 0.000000 0.000000 0.000000 0.000000 10.000000 
front_top_right_part3 0.000000 0.000000 0.000000 0.000000 0.000000 0.000000 10.000000 
#Beginning of Data. Separated by tabs
#Fr	Tx	Ty	Tz	Rx	Ry	Rz	SF
[MASTER]
85 0.000000 -0.000019 0.000002 0.002458 -0.000000 0.000000 0.000019
86 0.000000 -0.000019 0.000002 0.002458 -0.000000 0.000000 0.000019
87 0.000000 -0.000019 0.000002 0.002458 -0.000000 0.000000 0.000019
88 0.000000 -0.000019 0.000002 0.002458 -0.000000 0.000000 0.000019
89 0.000000 -0.000019 0.000002 0.002458 -0.000000 0.000000 0.000019
[weapon]
85 10.182457 -168.977844 -13.084106 -0.002473 -0.000000 -0.000020 169.789246
86 10.182457 -168.977844 -13.084106 -0.002473 -0.000000 -0.000020 169.789246
87 10.182457 -168.977844 -13.084106 -0.002473 -0.000000 -0.000020 169.789246
88 10.182457 -168.977844 -13.084106 -0.002473 -0.000000 -0.000020 169.789246
89 10.182457 -168.977844 -13.084106 -0.002473 -0.000000 -0.000020 169.789246
[arm_lock_bottom_part1]
85 -48.820000 98.566208 -83.498993 179.999985 0.000004 9.388626 138.096970
86 -48.820000 98.566208 -83.498993 179.999985 0.000004 9.388626 138.096970
87 -48.820000 98.566208 -83.498993 179.999985 0.000004 9.388626 138.096970
88 -48.820000 98.566208 -83.498993 179.999985 0.000004 9.388626 138.096970
89 -48.820000 98.566208 -83.498993 179.999985 0.000004 9.388626 138.096970
[arm_lock_bottom_part2]
85 -49.022766 58.782005 -78.526535 -179.999985 -0.000001 6.576765 109.658440
86 -49.022766 58.782005 -78.526535 -179.999985 -0.000001 6.576765 109.658440
87 -49.022766 58.782005 -78.526535 -179.999985 -0.000001 6.576765 109.658440
88 -49.022766 58.782005 -78.526535 -179.999985 -0.000001 6.576765 109.658440
89 -49.022766 58.782005 -78.526535 -179.999985 -0.000001 6.576765 109.658440
[arm_lock_bottom_part3]
85 -51.266422 -16.798210 -66.920395 -179.999985 -0.000001 4.326176 85.957924
86 -51.266422 -16.798210 -66.920395 -179.999985 -0.000001 4.326176 85.957924
87 -51.266422 -16.798210 -66.920395 -179.999985 -0.000001 4.326176 85.957924
88 -51.266422 -16.798210 -66.920395 -179.999985 -0.000001 4.326176 85.957924
89 -51.266422 -16.798210 -66.920395 -179.999985 -0.000001 4.326176 85.957924
[arm_lock_bottom_part4]
85 -40.078102 -93.503113 -59.330063 -179.999985 -0.000000 1.322129 117.767326
86 -40.078102 -93.503113 -59.330063 -179.999985 -0.000000 1.322129 117.767326
87 -40.078102 -93.503113 -59.330063 -179.999985 -0.000000 1.322129 117.767326
88 -40.078102 -93.503113 -59.330063 -179.999985 -0.000000 1.322129 117.767326
89 -40.078102 -93.503113 -59.330063 -179.999985 -0.000000 1.322129 117.767326
[arm_lock_top_part1]
85 -47.532558 61.554489 78.379364 0.000000 -0.000000 -9.999999 110.415680
86 -47.532558 61.554489 78.379364 0.000000 -0.000000 -9.999999 110.415680
87 -47.532558 61.554489 78.379364 0.000000 -0.000000 -9.999999 110.415680
88 -47.532558 61.554489 78.379364 0.000000 -0.000000 -9.999999 110.415680
89 -47.532558 61.554489 78.379364 0.000000 -0.000000 -9.999999 110.415680
[arm_lock_top_part2]
85 -45.622673 13.709908 63.393555 0.000000 -0.000000 -7.722126 79.297745
86 -45.622673 13.709908 63.393555 0.000000 -0.000000 -7.722126 79.297745
87 -45.622673 13.709908 63.393555 0.000000 -0.000000 -7.722126 79.297745
88 -45.622673 13.709908 63.393555 0.000000 -0.000000 -7.722126 79.297745
89 -45.622673 13.709908 63.393555 0.000000 -0.000000 -7.722126 79.297745
[arm_lock_top_part3]
85 -43.788544 -73.747208 72.061615 0.000000 0.000000 -4.533067 112.022163
86 -43.788544 -73.747208 72.061615 0.000000 0.000000 -4.533067 112.022163
87 -43.788544 -73.747208 72.061615 0.000000 0.000000 -4.533067 112.022163
88 -43.788544 -73.747208 72.061615 0.000000 0.000000 -4.533067 112.022163
89 -43.788544 -73.747208 72.061615 0.000000 0.000000 -4.533067 112.022163
[front_lower_left_part1]
85 -46.798553 475.070984 -43.538895 0.000000 0.000003 -0.000000 479.351837
86 -46.798553 475.070984 -43.538895 0.000000 0.000003 -0.000000 479.351837
87 -46.798553 475.070984 -43.538895 0.000000 0.000003 -0.000000 479.351837
88 -46.798553 475.070984 -43.538895 0.000000 0.000003 -0.000000 479.351837
89 -46.798553 475.070984 -43.538895 0.000000 0.000003 -0.000000 479.351837
[front_lower_right_part1]
85 26.433468 475.070984 -43.538742 0.000000 -0.000000 -0.000000 477.793671
86 26.433468 475.070984 -43.538742 0.000000 -0.000000 -0.000000 477.793671
87 26.433468 475.070984 -43.538742 0.000000 -0.000000 -0.000000 477.793671
88 26.433468 475.070984 -43.538742 0.000000 -0.000000 -0.000000 477.793671
89 26.433468 475.070984 -43.538742 0.000000 -0.000000 -0.000000 477.793671
[front_top_left_part]
85 -47.897224 494.788910 7.030945 -0.000000 0.000003 -0.000001 497.151520
86 -47.897224 494.788910 7.030945 -0.000000 0.000003 -0.000001 497.151520
87 -47.897224 494.788910 7.030945 -0.000000 0.000003 -0.000001 497.151520
88 -47.897224 494.788910 7.030945 -0.000000 0.000003 -0.000001 497.151520
89 -47.897224 494.788910 7.030945 -0.000000 0.000003 -0.000001 497.151520
[front_top_right_part1]
85 27.532139 494.788910 7.031097 0.000000 -0.000000 -0.000000 495.604218
86 27.532139 494.788910 7.031097 0.000000 -0.000000 -0.000000 495.604218
87 27.532139 494.788910 7.031097 0.000000 -0.000000 -0.000000 495.604218
88 27.532139 494.788910 7.031097 0.000000 -0.000000 -0.000000 495.604218
89 27.532139 494.788910 7.031097 0.000000 -0.000000 -0.000000 495.604218
[scope_part1]
85 -10.754299 87.338936 156.453094 -4.904434 -0.051319 0.004495 179.502960
86 -10.754299 87.338936 156.453094 -4.904508 -0.036066 0.003069 179.502960
87 -10.754299 87.338936 156.453094 -4.904432 -0.023421 0.002063 179.502960
88 -10.754299 87.338936 156.453094 -4.904507 -0.013328 0.001166 179.502960
89 -10.754299 87.338936 156.453094 -4.904507 -0.006006 0.000544 179.502960
[scope_part2]
85 -10.754299 82.597351 156.859894 -4.904434 0.047700 -0.004073 177.603500
86 -10.754299 82.597351 156.859894 -4.904433 0.033526 -0.002851 177.603500
87 -10.754299 82.597351 156.859894 -4.904432 0.021733 -0.001881 177.603500
88 -10.754299 82.597351 156.859894 -4.904431 0.012412 -0.001017 177.603500
89 -10.754299 82.597351 156.859894 -4.904432 0.005553 -0.000416 177.603500
[front_lower_left_part2]
85 -55.193516 141.618484 32.268444 0.000000 -0.000000 0.280166 155.381378
86 -55.193516 141.618484 32.268444 0.000000 -0.000000 0.198874 155.381378
87 -55.193516 141.618484 32.268444 0.000000 -0.000000 0.130102 155.381378
88 -55.193516 141.618484 32.268444 0.000000 -0.000000 0.074772 155.381378
89 -55.193516 141.618484 32.268444 0.000000 -0.000000 0.033977 155.381378
[front_lower_left_part3]
85 -10.943755 108.509445 -11.124877 33.389717 -15.934210 -13.606440 109.625854
86 -10.943737 108.509369 -11.124725 33.378242 -15.960695 -13.564614 109.625763
87 -10.943737 108.509369 -11.124725 33.368553 -15.982987 -13.529448 109.625763
88 -10.943755 108.509445 -11.124725 33.360836 -16.000725 -13.501359 109.625839
89 -10.943755 108.509521 -11.124877 33.355156 -16.013767 -13.480799 109.625931
[front_lower_right_part2]
85 55.193707 141.618347 32.268291 0.000000 0.000000 -0.133396 155.381271
86 55.193707 141.618347 32.268291 0.000000 0.000000 -0.094601 155.381271
87 55.193707 141.618347 32.268291 0.000000 0.000000 -0.061838 155.381271
88 55.193707 141.618347 32.268291 0.000000 0.000000 -0.035569 155.381271
89 55.193707 141.618347 32.268291 0.000000 0.000000 -0.016091 155.381271
[front_lower_right_part3]
85 10.943909 108.509445 -11.124573 33.366615 15.987400 13.522287 109.625839
86 10.943909 108.509369 -11.124877 33.361847 15.998332 13.505142 109.625793
87 10.943793 108.509369 -11.125030 33.357922 16.007448 13.490672 109.625801
88 10.943870 108.509369 -11.124573 33.354698 16.014755 13.479182 109.625755
89 10.943870 108.509445 -11.125030 33.352444 16.020025 13.470815 109.625885
[front_top_left_part2]
85 -42.369068 137.488327 54.828339 0.000000 -0.000003 0.000001 153.962082
86 -42.427944 137.488174 54.831543 0.000000 -0.000003 0.000001 153.979294
87 -42.477325 137.488098 54.834286 0.000000 -0.000003 0.000001 153.993835
88 -42.516674 137.488022 54.836426 0.000000 -0.000003 0.000001 154.005371
89 -42.545456 137.487946 54.838100 0.000000 -0.000003 0.000001 154.013855
[front_top_left_part3]
85 -28.216476 149.656906 49.959717 -25.851177 -3.873629 -66.474190 160.278915
86 -28.216457 149.656982 49.959717 -25.850002 -3.881656 -66.490852 160.278992
87 -28.216476 149.656982 49.959717 -25.849102 -3.888328 -66.504807 160.278992
88 -28.216457 149.656906 49.959717 -25.848331 -3.893687 -66.515808 160.278915
89 -28.216457 149.656982 49.959717 -25.847769 -3.897610 -66.523895 160.278992
[front_top_right_part2]
85 42.355312 137.487564 54.851074 0.000000 0.000000 -0.000020 153.965714
86 42.418221 137.487717 54.847565 0.000000 0.000000 -0.000020 153.981918
87 42.471012 137.487869 54.844662 0.000000 0.000000 -0.000020 153.995575
88 42.513050 137.487946 54.842377 0.000000 0.000000 -0.000020 154.006424
89 42.543797 137.488022 54.840698 0.000000 0.000000 -0.000020 154.014389
[front_top_right_part3]
85 28.216515 149.657135 49.959564 -25.849638 3.884837 66.497337 160.279083
86 28.216553 149.657059 49.959564 -25.848997 3.889508 66.507164 160.279022
87 28.216515 149.657135 49.959564 -25.848394 3.893493 66.515236 160.279083
88 28.216515 149.657135 49.959564 -25.848013 3.896583 66.521805 160.279083
89 28.216515 149.657135 49.959564 -25.847652 3.898873 66.526619 160.279083
